<svg width="31" height="31" viewBox="0 0 31 31" fill="none" xmlns="http://www.w3.org/2000/svg">
<path d="M25.5969 5.13998C11.8209 12.2254 11.8209 12.2254 5.04716 26.1677C18.8231 19.0823 18.8231 19.0823 25.5968 5.1401L25.5969 5.13998Z" fill="#A97C7C" stroke="black" stroke-width="0.1"/>
<path d="M20.918 2.05415C10.7932 13.7864 10.7932 13.7864 9.72574 29.2532C19.8505 17.521 19.8505 17.521 20.918 2.05428L20.918 2.05415Z" fill="#825F5F" stroke="black" stroke-width="0.1"/>
<path d="M28.8454 21.4048C17.237 11.1414 17.237 11.1414 1.79846 9.90294C13.4069 20.1662 13.4069 20.1662 28.8453 21.4048L28.8454 21.4048Z" fill="#825F5F" stroke="black" stroke-width="0.1"/>
<path d="M9.67239 2.07642C10.8007 17.5389 10.8007 17.5389 20.9715 29.2312C19.8432 13.7688 19.8432 13.7687 9.67247 2.07652L9.67239 2.07642Z" fill="#A97C7C" stroke="black" stroke-width="0.1"/>
<path d="M28.947 10.1484C13.4887 11.1078 13.4887 11.1078 1.69711 21.1598C17.1554 20.2003 17.1554 20.2003 28.9469 10.1484L28.947 10.1484Z" fill="#A97C7C" stroke="black" stroke-width="0.1"/>
<path d="M30.0142 15.4925C15.2681 10.7517 15.2681 10.7517 0.629551 15.8158C15.3757 20.5565 15.3757 20.5565 30.0141 15.4925L30.0142 15.4925Z" fill="#825F5F" stroke="black" stroke-width="0.1"/>
<path d="M15.3219 30.3623C20.2197 15.6542 20.2197 15.6542 15.3219 0.946167C10.4241 15.6542 10.4241 15.6542 15.3218 30.3622L15.3219 30.3623Z" fill="#825F5F" stroke="black" stroke-width="0.1"/>
<path d="M25.7116 26.0543C18.7852 12.1874 18.7852 12.1874 4.93226 5.25396C11.8587 19.1209 11.8587 19.1209 25.7115 26.0543L25.7116 26.0543Z" fill="#A97C7C" stroke="black" stroke-width="0.1"/>
</svg>
